<?xml version="1.0" encoding="UTF-8"?>
<!-- Generated by Pixelmator Pro 3.6.13 -->
<svg width="646" height="619" viewBox="0 0 646 619" xmlns="http://www.w3.org/2000/svg">
    <radialGradient id="radialGradient1" cx="320.5" cy="-359" r="354.696844" fx="320.5" fy="-359" gradientUnits="userSpaceOnUse">
        <stop offset="0.438842" stop-color="#0d59cf" stop-opacity="1"/>
        <stop offset="1" stop-color="#cccccc" stop-opacity="1"/>
    </radialGradient>
    <path id="Rounded-Rectangle" fill="url(#radialGradient1)" fill-rule="evenodd" stroke="none" d="M 26 -132.450012 C 26 -112.40918 26 -102.388794 30.207632 -94.875488 C 33.181351 -89.565552 37.565544 -85.181335 42.8755 -82.207642 C 50.388767 -78 60.40918 -78 80.449997 -78 L 560.549988 -78 C 580.59082 -78 590.611206 -78 598.124512 -82.207642 C 603.434448 -85.181335 607.818665 -89.565552 610.792358 -94.875488 C 615 -102.388794 615 -112.40918 615 -132.450012 L 615 -585.550049 C 615 -605.59082 615 -615.611206 610.792358 -623.124512 C 607.818665 -628.434448 603.434448 -632.818604 598.124512 -635.792358 C 590.611267 -640 580.59082 -640 560.549988 -640 L 80.449997 -640 C 60.40918 -640 50.388767 -640 42.8755 -635.792358 C 37.565544 -632.818604 33.181351 -628.434448 30.207632 -623.124512 C 26 -615.611328 26 -605.59082 26 -585.550049 Z"/>
    <radialGradient id="radialGradient2" cx="320.5" cy="310" r="354.696844" fx="320.5" fy="310" gradientUnits="userSpaceOnUse">
        <stop offset="0.624776" stop-color="#929292" stop-opacity="1"/>
        <stop offset="1" stop-color="#cccccc" stop-opacity="1"/>
    </radialGradient>
    <path id="Rounded-Rectangle-copy" fill="url(#radialGradient2)" fill-rule="evenodd" stroke="none" d="M 26 536.549988 C 26 556.59082 26 566.611206 30.207632 574.124512 C 33.181351 579.434448 37.565544 583.818665 42.8755 586.792358 C 50.388767 591 60.40918 591 80.449997 591 L 560.549988 591 C 580.59082 591 590.611206 591 598.124512 586.792358 C 603.434448 583.818665 607.818665 579.434448 610.792358 574.124512 C 615 566.611206 615 556.59082 615 536.549988 L 615 83.450012 C 615 63.40918 615 53.388794 610.792358 45.875488 C 607.818665 40.565552 603.434448 36.181335 598.124512 33.207642 C 590.611267 29 580.59082 29 560.549988 29 L 80.449997 29 C 60.40918 29 50.388767 29 42.8755 33.207642 C 37.565544 36.181335 33.181351 40.565552 30.207632 45.875488 C 26 53.388733 26 63.40918 26 83.449951 Z"/>
    <radialGradient id="radialGradient3" cx="1098.5" cy="310" r="354.696844" fx="1098.5" fy="310" gradientUnits="userSpaceOnUse">
        <stop offset="0.624776" stop-color="#ff8ec6" stop-opacity="1"/>
        <stop offset="1" stop-color="#ffffff" stop-opacity="1"/>
    </radialGradient>
    <path id="Rounded-Rectangle-copy-3" fill="url(#radialGradient3)" fill-rule="evenodd" stroke="none" d="M 804 536.549988 C 804 556.59082 804 566.611206 808.207642 574.124512 C 811.181335 579.434448 815.565552 583.818665 820.875488 586.792358 C 828.388794 591 838.40918 591 858.450012 591 L 1338.550049 591 C 1358.59082 591 1368.611206 591 1376.124512 586.792358 C 1381.434448 583.818665 1385.818604 579.434448 1388.792358 574.124512 C 1393 566.611206 1393 556.59082 1393 536.549988 L 1393 83.450012 C 1393 63.40918 1393 53.388794 1388.792358 45.875488 C 1385.818604 40.565552 1381.434448 36.181335 1376.124512 33.207642 C 1368.611328 29 1358.59082 29 1338.550049 29 L 858.450012 29 C 838.40918 29 828.388794 29 820.875488 33.207642 C 815.565552 36.181335 811.181335 40.565552 808.207642 45.875488 C 804 53.388733 804 63.40918 804 83.449951 Z"/>
    <radialGradient id="radialGradient4" cx="1098.5" cy="-359" r="354.696844" fx="1098.5" fy="-359" gradientUnits="userSpaceOnUse">
        <stop offset="0.438842" stop-color="#7db39e" stop-opacity="1"/>
        <stop offset="1" stop-color="#cccccc" stop-opacity="1"/>
    </radialGradient>
    <path id="Rounded-Rectangle-copy-2" fill="url(#radialGradient4)" fill-rule="evenodd" stroke="none" d="M 804 -132.450012 C 804 -112.40918 804 -102.388794 808.207642 -94.875488 C 811.181335 -89.565552 815.565552 -85.181335 820.875488 -82.207642 C 828.388794 -78 838.40918 -78 858.450012 -78 L 1338.550049 -78 C 1358.59082 -78 1368.611206 -78 1376.124512 -82.207642 C 1381.434448 -85.181335 1385.818604 -89.565552 1388.792358 -94.875488 C 1393 -102.388794 1393 -112.40918 1393 -132.450012 L 1393 -585.550049 C 1393 -605.59082 1393 -615.611206 1388.792358 -623.124512 C 1385.818604 -628.434448 1381.434448 -632.818604 1376.124512 -635.792358 C 1368.611328 -640 1358.59082 -640 1338.550049 -640 L 858.450012 -640 C 838.40918 -640 828.388794 -640 820.875488 -635.792358 C 815.565552 -632.818604 811.181335 -628.434448 808.207642 -623.124512 C 804 -615.611328 804 -605.59082 804 -585.550049 Z"/>
</svg>
