<?xml version="1.0" encoding="UTF-8"?>
<!-- Generated by Pixelmator Pro 3.6.13 -->
<svg width="738" height="641" viewBox="0 0 738 641" xmlns="http://www.w3.org/2000/svg">
    <radialGradient id="radialGradient1" cx="363.5" cy="323" r="354.696844" fx="363.5" fy="323" gradientUnits="userSpaceOnUse">
        <stop offset="0.438842" stop-color="#7db39e" stop-opacity="1"/>
        <stop offset="1" stop-color="#cccccc" stop-opacity="1"/>
    </radialGradient>
    <path id="Rounded-Rectangle-copy-2" fill="url(#radialGradient1)" fill-rule="evenodd" stroke="none" d="M 69 549.549988 C 69 569.59082 69 579.611206 73.207634 587.124512 C 76.181351 592.434448 80.565544 596.818665 85.875504 599.792358 C 93.388763 604 103.40918 604 123.449997 604 L 603.549988 604 C 623.59082 604 633.611206 604 641.124512 599.792358 C 646.434448 596.818665 650.818665 592.434448 653.792358 587.124512 C 658 579.611206 658 569.59082 658 549.549988 L 658 96.450012 C 658 76.40918 658 66.388794 653.792358 58.875488 C 650.818665 53.565552 646.434448 49.181335 641.124512 46.207642 C 633.611267 42 623.59082 42 603.549988 42 L 123.449997 42 C 103.40918 42 93.388763 42 85.875504 46.207642 C 80.565544 49.181335 76.181351 53.565552 73.207634 58.875488 C 69 66.388733 69 76.40918 69 96.449951 Z"/>
</svg>
