<?xml version="1.0" encoding="UTF-8"?>
<!-- Generated by Pixelmator Pro 3.6.13 -->
<svg width="748" height="700" viewBox="0 0 748 700" xmlns="http://www.w3.org/2000/svg">
    <radialGradient id="radialGradient1" cx="385.5" cy="363" r="354.696844" fx="385.5" fy="363" gradientUnits="userSpaceOnUse">
        <stop offset="0.438842" stop-color="#0d59cf" stop-opacity="1"/>
        <stop offset="1" stop-color="#cccccc" stop-opacity="1"/>
    </radialGradient>
    <path id="Rounded-Rectangle" fill="url(#radialGradient1)" fill-rule="evenodd" stroke="none" d="M 91 589.549988 C 91 609.59082 91 619.611206 95.207634 627.124512 C 98.181351 632.434448 102.565544 636.818665 107.875504 639.792358 C 115.388763 644 125.40918 644 145.449997 644 L 625.549988 644 C 645.59082 644 655.611206 644 663.124512 639.792358 C 668.434448 636.818665 672.818665 632.434448 675.792358 627.124512 C 680 619.611206 680 609.59082 680 589.549988 L 680 136.450012 C 680 116.40918 680 106.388794 675.792358 98.875488 C 672.818665 93.565552 668.434448 89.181335 663.124512 86.207642 C 655.611267 82 645.59082 82 625.549988 82 L 145.449997 82 C 125.40918 82 115.388763 82 107.875504 86.207642 C 102.565544 89.181335 98.181351 93.565552 95.207634 98.875488 C 91 106.388733 91 116.40918 91 136.449951 Z"/>
    <radialGradient id="radialGradient2" cx="385.5" cy="1032" r="354.696844" fx="385.5" fy="1032" gradientUnits="userSpaceOnUse">
        <stop offset="0.624776" stop-color="#929292" stop-opacity="1"/>
        <stop offset="1" stop-color="#cccccc" stop-opacity="1"/>
    </radialGradient>
    <path id="Rounded-Rectangle-copy" fill="url(#radialGradient2)" fill-rule="evenodd" stroke="none" d="M 91 1258.550049 C 91 1278.59082 91 1288.611206 95.207634 1296.124512 C 98.181351 1301.434448 102.565544 1305.818604 107.875504 1308.792358 C 115.388763 1313 125.40918 1313 145.449997 1313 L 625.549988 1313 C 645.59082 1313 655.611206 1313 663.124512 1308.792358 C 668.434448 1305.818604 672.818665 1301.434448 675.792358 1296.124512 C 680 1288.611206 680 1278.59082 680 1258.550049 L 680 805.450012 C 680 785.40918 680 775.388794 675.792358 767.875488 C 672.818665 762.565552 668.434448 758.181335 663.124512 755.207642 C 655.611267 751 645.59082 751 625.549988 751 L 145.449997 751 C 125.40918 751 115.388763 751 107.875504 755.207642 C 102.565544 758.181335 98.181351 762.565552 95.207634 767.875488 C 91 775.388733 91 785.40918 91 805.449951 Z"/>
    <radialGradient id="radialGradient3" cx="1163.5" cy="1032" r="354.696844" fx="1163.5" fy="1032" gradientUnits="userSpaceOnUse">
        <stop offset="0.624776" stop-color="#ff8ec6" stop-opacity="1"/>
        <stop offset="1" stop-color="#ffffff" stop-opacity="1"/>
    </radialGradient>
    <path id="Rounded-Rectangle-copy-3" fill="url(#radialGradient3)" fill-rule="evenodd" stroke="none" d="M 869 1258.550049 C 869 1278.59082 869 1288.611206 873.207642 1296.124512 C 876.181335 1301.434448 880.565552 1305.818604 885.875488 1308.792358 C 893.388794 1313 903.40918 1313 923.450012 1313 L 1403.550049 1313 C 1423.59082 1313 1433.611206 1313 1441.124512 1308.792358 C 1446.434448 1305.818604 1450.818604 1301.434448 1453.792358 1296.124512 C 1458 1288.611206 1458 1278.59082 1458 1258.550049 L 1458 805.450012 C 1458 785.40918 1458 775.388794 1453.792358 767.875488 C 1450.818604 762.565552 1446.434448 758.181335 1441.124512 755.207642 C 1433.611328 751 1423.59082 751 1403.550049 751 L 923.450012 751 C 903.40918 751 893.388794 751 885.875488 755.207642 C 880.565552 758.181335 876.181335 762.565552 873.207642 767.875488 C 869 775.388733 869 785.40918 869 805.449951 Z"/>
    <radialGradient id="radialGradient4" cx="1163.5" cy="363" r="354.696844" fx="1163.5" fy="363" gradientUnits="userSpaceOnUse">
        <stop offset="0.438842" stop-color="#7db39e" stop-opacity="1"/>
        <stop offset="1" stop-color="#cccccc" stop-opacity="1"/>
    </radialGradient>
    <path id="Rounded-Rectangle-copy-2" fill="url(#radialGradient4)" fill-rule="evenodd" stroke="none" d="M 869 589.549988 C 869 609.59082 869 619.611206 873.207642 627.124512 C 876.181335 632.434448 880.565552 636.818665 885.875488 639.792358 C 893.388794 644 903.40918 644 923.450012 644 L 1403.550049 644 C 1423.59082 644 1433.611206 644 1441.124512 639.792358 C 1446.434448 636.818665 1450.818604 632.434448 1453.792358 627.124512 C 1458 619.611206 1458 609.59082 1458 589.549988 L 1458 136.450012 C 1458 116.40918 1458 106.388794 1453.792358 98.875488 C 1450.818604 93.565552 1446.434448 89.181335 1441.124512 86.207642 C 1433.611328 82 1423.59082 82 1403.550049 82 L 923.450012 82 C 903.40918 82 893.388794 82 885.875488 86.207642 C 880.565552 89.181335 876.181335 93.565552 873.207642 98.875488 C 869 106.388733 869 116.40918 869 136.449951 Z"/>
</svg>
