<?xml version="1.0" encoding="UTF-8"?>
<!-- Generated by Pixelmator Pro 3.6.13 -->
<svg width="627" height="654" viewBox="0 0 627 654" xmlns="http://www.w3.org/2000/svg">
    <radialGradient id="radialGradient1" cx="-465.5" cy="-337" r="354.696844" fx="-465.5" fy="-337" gradientUnits="userSpaceOnUse">
        <stop offset="0.438842" stop-color="#0d59cf" stop-opacity="1"/>
        <stop offset="1" stop-color="#cccccc" stop-opacity="1"/>
    </radialGradient>
    <path id="Rounded-Rectangle" fill="url(#radialGradient1)" fill-rule="evenodd" stroke="none" d="M -760 -110.450012 C -760 -90.40918 -760 -80.388794 -755.792358 -72.875488 C -752.818665 -67.565552 -748.434448 -63.181335 -743.124512 -60.207642 C -735.611206 -56 -725.59082 -56 -705.549988 -56 L -225.450012 -56 C -205.40918 -56 -195.388794 -56 -187.875488 -60.207642 C -182.565552 -63.181335 -178.181335 -67.565552 -175.207642 -72.875488 C -171 -80.388794 -171 -90.40918 -171 -110.450012 L -171 -563.550049 C -171 -583.59082 -171 -593.611206 -175.207642 -601.124512 C -178.181335 -606.434448 -182.565552 -610.818604 -187.875488 -613.792358 C -195.388733 -618 -205.40918 -618 -225.450012 -618 L -705.549988 -618 C -725.59082 -618 -735.611206 -618 -743.124512 -613.792358 C -748.434448 -610.818604 -752.818665 -606.434448 -755.792358 -601.124512 C -760 -593.611328 -760 -583.59082 -760 -563.550049 Z"/>
    <radialGradient id="radialGradient2" cx="-465.5" cy="332" r="354.696844" fx="-465.5" fy="332" gradientUnits="userSpaceOnUse">
        <stop offset="0.624776" stop-color="#929292" stop-opacity="1"/>
        <stop offset="1" stop-color="#cccccc" stop-opacity="1"/>
    </radialGradient>
    <path id="Rounded-Rectangle-copy" fill="url(#radialGradient2)" fill-rule="evenodd" stroke="none" d="M -760 558.549988 C -760 578.59082 -760 588.611206 -755.792358 596.124512 C -752.818665 601.434448 -748.434448 605.818665 -743.124512 608.792358 C -735.611206 613 -725.59082 613 -705.549988 613 L -225.450012 613 C -205.40918 613 -195.388794 613 -187.875488 608.792358 C -182.565552 605.818665 -178.181335 601.434448 -175.207642 596.124512 C -171 588.611206 -171 578.59082 -171 558.549988 L -171 105.450012 C -171 85.40918 -171 75.388794 -175.207642 67.875488 C -178.181335 62.565552 -182.565552 58.181335 -187.875488 55.207642 C -195.388733 51 -205.40918 51 -225.450012 51 L -705.549988 51 C -725.59082 51 -735.611206 51 -743.124512 55.207642 C -748.434448 58.181335 -752.818665 62.565552 -755.792358 67.875488 C -760 75.388733 -760 85.40918 -760 105.449951 Z"/>
    <radialGradient id="radialGradient3" cx="312.5" cy="332" r="354.696844" fx="312.5" fy="332" gradientUnits="userSpaceOnUse">
        <stop offset="0.624776" stop-color="#ff8ec6" stop-opacity="1"/>
        <stop offset="1" stop-color="#ffffff" stop-opacity="1"/>
    </radialGradient>
    <path id="Rounded-Rectangle-copy-3" fill="url(#radialGradient3)" fill-rule="evenodd" stroke="none" d="M 18 558.549988 C 18 578.59082 18 588.611206 22.207632 596.124512 C 25.181351 601.434448 29.565544 605.818665 34.8755 608.792358 C 42.388767 613 52.40918 613 72.449997 613 L 552.549988 613 C 572.59082 613 582.611206 613 590.124512 608.792358 C 595.434448 605.818665 599.818665 601.434448 602.792358 596.124512 C 607 588.611206 607 578.59082 607 558.549988 L 607 105.450012 C 607 85.40918 607 75.388794 602.792358 67.875488 C 599.818665 62.565552 595.434448 58.181335 590.124512 55.207642 C 582.611267 51 572.59082 51 552.549988 51 L 72.449997 51 C 52.40918 51 42.388767 51 34.8755 55.207642 C 29.565544 58.181335 25.181351 62.565552 22.207632 67.875488 C 18 75.388733 18 85.40918 18 105.449951 Z"/>
    <radialGradient id="radialGradient4" cx="312.5" cy="-337" r="354.696844" fx="312.5" fy="-337" gradientUnits="userSpaceOnUse">
        <stop offset="0.438842" stop-color="#7db39e" stop-opacity="1"/>
        <stop offset="1" stop-color="#cccccc" stop-opacity="1"/>
    </radialGradient>
    <path id="Rounded-Rectangle-copy-2" fill="url(#radialGradient4)" fill-rule="evenodd" stroke="none" d="M 18 -110.450012 C 18 -90.40918 18 -80.388794 22.207632 -72.875488 C 25.181351 -67.565552 29.565544 -63.181335 34.8755 -60.207642 C 42.388767 -56 52.40918 -56 72.449997 -56 L 552.549988 -56 C 572.59082 -56 582.611206 -56 590.124512 -60.207642 C 595.434448 -63.181335 599.818665 -67.565552 602.792358 -72.875488 C 607 -80.388794 607 -90.40918 607 -110.450012 L 607 -563.550049 C 607 -583.59082 607 -593.611206 602.792358 -601.124512 C 599.818665 -606.434448 595.434448 -610.818604 590.124512 -613.792358 C 582.611267 -618 572.59082 -618 552.549988 -618 L 72.449997 -618 C 52.40918 -618 42.388767 -618 34.8755 -613.792358 C 29.565544 -610.818604 25.181351 -606.434448 22.207632 -601.124512 C 18 -593.611328 18 -583.59082 18 -563.550049 Z"/>
</svg>
