<svg width="24" height="24" viewBox="0 0 24 24" fill="none" xmlns="http://www.w3.org/2000/svg">
<g clip-path="url(#clip0_7004_565)">
<path d="M12.2457 6.58081C13.4454 6.58081 14.4978 6.12791 15.4029 5.22211C16.308 4.3163 16.7606 3.26301 16.7606 2.06223C16.7606 1.93035 16.7498 1.74294 16.7283 1.5C16.5702 1.52082 16.4517 1.53818 16.3727 1.55206C15.2664 1.70476 14.293 2.22881 13.4526 3.12418C12.6121 4.01958 12.1919 4.97745 12.1919 5.99778C12.1919 6.11576 12.2098 6.31013 12.2457 6.58081ZM16.5451 22.5C17.3999 22.5 18.3446 21.9343 19.379 20.8029C20.4135 19.6715 21.2036 18.3423 21.7496 16.8153C19.7166 15.8019 18.7002 14.3478 18.7002 12.4529C18.7002 10.8704 19.5227 9.51687 21.1677 8.39242C20.0255 7.01115 18.517 6.32052 16.6421 6.32052C15.8519 6.32052 15.1299 6.43504 14.4762 6.6641L14.0668 6.80986L13.5172 7.01809C13.158 7.14997 12.8312 7.21593 12.5367 7.21593C12.3068 7.21593 12.0051 7.13956 11.6315 6.98686L11.2113 6.82027L10.8126 6.6641C10.2307 6.4281 9.60577 6.31011 8.93771 6.31011C7.149 6.31011 5.71229 6.89315 4.62757 8.05925C3.54284 9.22533 3.00049 10.7628 3.00049 12.6715C3.00049 15.3577 3.86969 17.8391 5.60812 20.1158C6.81497 21.7052 7.91764 22.5 8.91615 22.5C9.33999 22.5 9.76022 22.4202 10.1769 22.2605L10.7049 22.0523L11.1251 21.9065C11.7141 21.7052 12.2565 21.6046 12.7522 21.6046C13.2766 21.6046 13.88 21.733 14.5624 21.9898L14.8965 22.1148C15.5932 22.3716 16.1428 22.5 16.5451 22.5Z" fill="black"/>
</g>
<defs>
<clipPath id="clip0_7004_565">
<rect width="18.75" height="21" fill="white" transform="translate(3 1.5)"/>
</clipPath>
</defs>
</svg>
